# xmcd CD database generated by RipIT
#
# Track frame offsets:
# 150
# 19581
# 40066
# 59362
# 77443
# 94552
# 116414
# 131931
# 154172
# 171146
# 186284
# 206283
#
# Disc length: 3028 seconds
#
# Revision: 0
# Processed by: cddbd v1.5.1PL2 Copyright (c) Steve Scherf et al.
# Submitted via: RipIT 3.4.2.4 www.suwald.com/ripit/ripit.html at Thu Apr 27 19:53:25 CDT 2006
#
DISCID=920bd20c
DTITLE=John Corbett - John Corbett
DYEAR=2006
DGENRE=Country
TTITLE0=Bottle Of Whiskey
TTITLE1=Good To Go
TTITLE2=Revival
TTITLE3=Wichita
TTITLE4=Cash
TTITLE5=Simple Man
TTITLE6=Back Door To My Heart
TTITLE7=Best Move
TTITLE8=Leave
TTITLE9=Waiting On A Heartache
TTITLE10=Judge A Man
TTITLE11=Last Stand
EXTD=
EXTT0=
EXTT1=
EXTT2=
EXTT3=
EXTT4=
EXTT5=
EXTT6=
EXTT7=
EXTT8=
EXTT9=
EXTT10=
EXTT11=
PLAYORDER=
